<?xml version="1.0" encoding="UTF-8"?>
<svg xmlns="http://www.w3.org/2000/svg" viewBox="0 0 512 512" width="512" height="512"><g id="_03-windy" data-name="03-windy"><path d="M256,60a12,12,0,0,0,12-12V23a12,12,0,0,0-24,0V48A12,12,0,0,0,256,60Z"/><path d="M141.608,81.867a12,12,0,1,0,20.784-12l-12.5-21.651a12,12,0,0,0-20.784,12Z"/><path d="M48.216,149.892l21.651,12.5a12,12,0,0,0,12-20.784l-21.651-12.5a12,12,0,1,0-12,20.784Z"/><path d="M158,425.741a12,12,0,0,0-16.392,4.392l-12.5,21.651a12,12,0,1,0,20.784,12l12.5-21.651A12,12,0,0,0,158,425.741Z"/><path d="M256,452a12,12,0,0,0-12,12v25a12,12,0,0,0,24,0V464A12,12,0,0,0,256,452Z"/><path d="M370.392,430.133a12,12,0,1,0-20.784,12l12.5,21.651a12,12,0,0,0,20.784-12Z"/><path d="M354,86.259a11.994,11.994,0,0,0,16.392-4.392l12.5-21.651a12,12,0,1,0-20.784-12l-12.5,21.651A12,12,0,0,0,354,86.259Z"/><path d="M308,272a12,12,0,0,1,12-12H427.949c.031-1.33.051-2.663.051-4a172.44,172.44,0,0,0-2.291-28H272a12,12,0,0,1,0-24H419.958a171.055,171.055,0,0,0-13.913-32H280a12,12,0,0,1,0-24H389.758A171.742,171.742,0,0,0,256,84C161.159,84,84,161.159,84,256c0,1.337.02,2.67.051,4H168a12,12,0,0,1,0,24H86.291a170.571,170.571,0,0,0,11.735,40H192a12,12,0,0,1,0,24H110.735A172.021,172.021,0,0,0,256,428c85.308,0,156.3-62.43,169.709-144H320A12,12,0,0,1,308,272ZM196,216a12,12,0,0,1,12-12h16a12,12,0,0,1,0,24H208A12,12,0,0,1,196,216Zm8,56a12,12,0,0,1,12-12h56a12,12,0,0,1,0,24H216A12,12,0,0,1,204,272Zm136,64a12,12,0,0,1-12,12H240a12,12,0,0,1,0-24h88A12,12,0,0,1,340,336Z"/><path d="M424,172a44,44,0,1,0-33-73.106,12,12,0,0,0,18,15.88A20,20,0,1,1,424,148H389.758a172.757,172.757,0,0,1,16.287,24Z"/><path d="M464,260H427.949a172.279,172.279,0,0,1-2.24,24H464a20,20,0,1,1-15,33.226,12,12,0,0,0-18,15.88A44,44,0,1,0,464,260Z"/><path d="M48,324a44,44,0,1,0,33,73.106,12,12,0,0,0-18-15.88A20,20,0,1,1,48,348h62.735a171.769,171.769,0,0,1-12.709-24Z"/><path d="M456,228a12,12,0,0,0,0-24H419.958a170.607,170.607,0,0,1,5.751,24Z"/><path d="M64,260a12,12,0,0,0,0,24H86.291a172.279,172.279,0,0,1-2.24-24Z"/></g></svg>
